<?xml version="1.0" encoding="UTF-8"?>
<svg version="1.1" xmlns="http://www.w3.org/2000/svg" width="475" height="159">
<path d="M0 0 C156.75 0 313.5 0 475 0 C475 52.47 475 104.94 475 159 C318.25 159 161.5 159 0 159 C0 106.53 0 54.06 0 0 Z " fill="#191718" transform="translate(0,0)"/>
<path d="M0 0 C1.24961047 -0.00507454 2.49922094 -0.01014909 3.7866984 -0.0153774 C5.17074871 -0.01597902 6.55479907 -0.01647812 7.93884945 -0.01688576 C9.41129212 -0.02090241 10.88373369 -0.02534097 12.35617393 -0.03016531 C16.40347246 -0.04211393 20.45075909 -0.04777528 24.49807179 -0.05234647 C28.86295197 -0.05830901 33.22781796 -0.06991718 37.59268856 -0.08063698 C48.13431519 -0.10514529 58.67594652 -0.11978544 69.21759287 -0.13269705 C72.19565202 -0.13641 75.17371071 -0.14038314 78.1517694 -0.14444971 C96.65063624 -0.16968628 115.14950384 -0.19173632 133.64838409 -0.20417786 C137.93204978 -0.20710748 142.21571544 -0.21006916 146.49938107 -0.21308327 C148.09637835 -0.21420234 148.09637835 -0.21420234 149.7256382 -0.21534403 C166.96995658 -0.22799585 184.21417181 -0.26121771 201.45844198 -0.3028851 C219.16821325 -0.34532606 236.87793173 -0.36887535 254.58775371 -0.37409842 C264.52896864 -0.37750997 274.47002235 -0.38923517 284.41118717 -0.42220116 C292.87804083 -0.45023244 301.34470019 -0.46118745 309.81159664 -0.4500057 C314.12911645 -0.44482703 318.44622955 -0.44765408 322.76368999 -0.47247124 C326.72240117 -0.49503567 330.68041519 -0.4941688 334.63913917 -0.47526737 C336.06517918 -0.47247738 337.49126721 -0.47800991 338.91723032 -0.4930803 C352.05859682 -0.62338516 362.07656046 2.46230349 371.63194942 11.66435814 C382.10963131 23.46573293 383.76842263 36.58393684 383.06261349 51.77959251 C381.88117775 63.6135588 374.6304916 73.60751208 365.82726192 81.13701439 C355.93298025 87.71333413 344.9321594 88.57845408 333.37341976 88.51796532 C331.92482032 88.52142712 330.47622352 88.52619518 329.02763218 88.53214705 C325.06943747 88.54461513 321.1114611 88.53850589 317.15326583 88.52918839 C312.8757396 88.52238091 308.59825004 88.53288758 304.32073116 88.54112816 C295.94964528 88.55444993 287.57864021 88.55159459 279.20755119 88.54289024 C272.40200368 88.53610752 265.59647877 88.53519952 258.79092884 88.53846169 C257.8213079 88.53892138 256.85168695 88.53938108 255.85268356 88.53985471 C253.88273493 88.54081392 251.91278632 88.54178656 249.94283771 88.54277249 C231.48143778 88.55132194 213.02008259 88.54149946 194.55869 88.52537139 C178.7294904 88.51197074 162.90035682 88.51429508 147.07115841 88.52812767 C128.67612765 88.54419499 110.28113608 88.55049578 91.88609928 88.54129088 C89.92320312 88.54033526 87.96030695 88.53939215 85.99741077 88.53846169 C84.54885328 88.53776745 84.54885328 88.53776745 83.07103201 88.53705918 C76.27681469 88.53447259 69.4826223 88.53883319 62.68840885 88.54590034 C54.40392371 88.55432844 46.11952381 88.55200779 37.83504838 88.53605811 C33.61088764 88.52819268 29.38686882 88.52505419 25.16270924 88.53500557 C21.29073205 88.54398905 17.41902748 88.53895995 13.54707479 88.52307291 C12.1514968 88.51974047 10.75589546 88.52138431 9.36033268 88.52870028 C-4.93361802 88.59784564 -16.91039855 86.14599427 -27.46570683 75.91435814 C-37.64041578 64.17430935 -39.41500915 51.57080228 -38.41639042 36.5691433 C-37.50368949 27.45859556 -34.36627256 19.8976677 -28.17273808 13.13701439 C-27.38576542 12.21469017 -27.38576542 12.21469017 -26.58289433 11.27373314 C-19.36954795 3.34753841 -10.56859818 0.02282576 0 0 Z " fill="#E51175" transform="translate(65.17273807525635,34.862985610961914)"/>
<path d="M0 0 C3.3 0 6.6 0 10 0 C10 5.94 10 11.88 10 18 C11.32 12.06 12.64 6.12 14 0 C17.3 0 20.6 0 24 0 C22.43034534 10.59085672 19.94851535 20.87002155 17.375 31.25 C16.95011331 32.97776442 16.52563115 34.70562837 16.1015625 36.43359375 C15.07236329 40.62355665 14.03771702 44.81213893 13 49 C9.7 49 6.4 49 3 49 C3 42.4 3 35.8 3 29 C1.72571094 34.8331036 1.72571094 34.8331036 0.45727539 40.66748047 C0.29735107 41.39338379 0.13742676 42.11928711 -0.02734375 42.8671875 C-0.18968506 43.61081543 -0.35202637 44.35444336 -0.51928711 45.12060547 C-1 47 -1 47 -2 49 C-4.97 49 -7.94 49 -11 49 C-10.3606576 43.13461922 -9.31286455 37.49958787 -7.96875 31.7578125 C-7.77277222 30.90822968 -7.57679443 30.05864685 -7.37487793 29.18331909 C-6.96327134 27.40301612 -6.54971098 25.62316382 -6.13427734 23.84375 C-5.4972292 21.11312332 -4.86731057 18.38092131 -4.23828125 15.6484375 C-3.83635509 13.91396568 -3.43402579 12.17958722 -3.03125 10.4453125 C-2.84268433 9.62765411 -2.65411865 8.80999573 -2.45983887 7.96755981 C-1.11563294 2.23126589 -1.11563294 2.23126589 0 0 Z " fill="#FEF9FB" transform="translate(116,53)"/>
<path d="M0 0 C3.10398978 -0.08710289 6.20766548 -0.14042309 9.3125 -0.1875 C10.19357422 -0.21263672 11.07464844 -0.23777344 11.98242188 -0.26367188 C12.82998047 -0.27333984 13.67753906 -0.28300781 14.55078125 -0.29296875 C15.72120972 -0.31653442 15.72120972 -0.31653442 16.9152832 -0.34057617 C19.55698483 0.09099354 20.41660241 0.8727654 22 3 C22.70914474 8.79134872 21.47187838 14.72419988 19 20 C16.890625 21.796875 16.890625 21.796875 15 23 C15.66 23.66 16.32 24.32 17 25 C16.61197545 30.66639024 15.37378434 36.01877355 13.9375 41.5 C13.75123047 42.22703125 13.56496094 42.9540625 13.37304688 43.703125 C12.91973545 45.46987724 12.4604998 47.23510775 12 49 C8.7 49 5.4 49 2 49 C2.64367885 45.89537223 3.28984806 42.7912991 3.9375 39.6875 C4.11990234 38.80642578 4.30230469 37.92535156 4.49023438 37.01757812 C4.66748047 36.17001953 4.84472656 35.32246094 5.02734375 34.44921875 C5.27085571 33.27879028 5.27085571 33.27879028 5.51928711 32.0847168 C6 30 6 30 7 27 C5.68 27 4.36 27 3 27 C2.96261719 27.58265625 2.92523438 28.1653125 2.88671875 28.765625 C2.32790944 35.7343058 0.84009453 42.26455965 -1 49 C-4.3 49 -7.6 49 -11 49 C-10.3606576 43.13461922 -9.31286455 37.49958787 -7.96875 31.7578125 C-7.77277222 30.90822968 -7.57679443 30.05864685 -7.37487793 29.18331909 C-6.96327134 27.40301612 -6.54971098 25.62316382 -6.13427734 23.84375 C-5.4972292 21.11312332 -4.86731057 18.38092131 -4.23828125 15.6484375 C-3.83635509 13.91396568 -3.43402579 12.17958722 -3.03125 10.4453125 C-2.84268433 9.62765411 -2.65411865 8.80999573 -2.45983887 7.96755981 C-1.11563294 2.23126589 -1.11563294 2.23126589 0 0 Z " fill="#FEF9FB" transform="translate(305,53)"/>
<path d="M0 0 C5.61 0 11.22 0 17 0 C15.2618099 16.36795674 13.13837251 32.6805137 11 49 C7.7 49 4.4 49 1 49 C1.33 46.36 1.66 43.72 2 41 C0.02 41 -1.96 41 -4 41 C-4.66 43.64 -5.32 46.28 -6 49 C-9.3 49 -12.6 49 -16 49 C-10.98290185 32.54926232 -5.85647175 16.17591394 0 0 Z " fill="#FEF8FB" transform="translate(280,53)"/>
<path d="M0 0 C2.31279611 1.15639806 4.17409828 2.17409828 6 4 C6.09873816 5.99799572 6.12971799 7.99957158 6.125 10 C6.12886719 11.6396875 6.12886719 11.6396875 6.1328125 13.3125 C6 16 6 16 5 17 C3.48071962 17.07179964 1.95832518 17.08392007 0.4375 17.0625 C-0.38878906 17.05347656 -1.21507812 17.04445313 -2.06640625 17.03515625 C-3.02353516 17.01775391 -3.02353516 17.01775391 -4 17 C-4 14.69 -4 12.38 -4 10 C-6.02187151 10.5334079 -6.02187151 10.5334079 -8 12 C-9.11255001 14.97339478 -9.11255001 14.97339478 -9.703125 18.5390625 C-9.83064148 19.17991791 -9.95815796 19.82077332 -10.08953857 20.48104858 C-10.49262931 22.52625585 -10.87152901 24.57510889 -11.25 26.625 C-11.51925159 28.01332853 -11.79006659 29.40135483 -12.0625 30.7890625 C-12.72650212 34.18939011 -13.36888973 37.59339576 -14 41 C-12.00539433 40.14869652 -12.00539433 40.14869652 -10 39 C-9.08839907 36.82791412 -9.08839907 36.82791412 -8.75 34.375 C-8.60046875 33.55773437 -8.4509375 32.74046875 -8.296875 31.8984375 C-8.19890625 31.27195312 -8.1009375 30.64546875 -8 30 C-8.66 30 -9.32 30 -10 30 C-9.34 27.03 -8.68 24.06 -8 21 C-4.04 21 -0.08 21 4 21 C2.50978654 30.81057194 0.35075058 40.36876945 -2 50 C-3.65 50 -5.3 50 -7 50 C-7.33 49.01 -7.66 48.02 -8 47 C-8.474375 47.495 -8.94875 47.99 -9.4375 48.5 C-13.10560943 50.64718601 -16.83575725 50.78223344 -21 50 C-23.16312031 48.35962283 -23.91841496 47.47028352 -24.38745117 44.76660156 C-24.2949432 37.17106169 -23.05546675 30.13097412 -21.3125 22.75 C-21.06822266 21.61820313 -20.82394531 20.48640625 -20.57226562 19.3203125 C-18.79702593 11.64408616 -16.92809712 5.64719589 -10.125 1.0625 C-6.46592553 -0.18158532 -3.84241761 -0.41917283 0 0 Z " fill="#FEF6FA" transform="translate(265,52)"/>
<path d="M0 0 C2.125 1.5625 2.125 1.5625 3.125 2.5625 C3.19726502 4.41537502 3.2088122 6.27083878 3.1875 8.125 C3.17847656 9.13691406 3.16945313 10.14882813 3.16015625 11.19140625 C3.14855469 11.97386719 3.13695313 12.75632812 3.125 13.5625 C-0.175 13.5625 -3.475 13.5625 -6.875 13.5625 C-6.875 11.5825 -6.875 9.6025 -6.875 7.5625 C-7.865 7.8925 -8.855 8.2225 -9.875 8.5625 C-9.74229212 14.79977058 -7.43718784 17.91981324 -3.46875 22.64453125 C-1.79579687 24.65781553 -0.88336382 25.77128253 -0.85546875 28.41015625 C-1.51104963 35.42363471 -3.2558346 42.84691899 -8.875 47.5625 C-13.50895663 49.10715221 -18.040586 49.17765747 -22.875 48.5625 C-25.5625 46.625 -25.5625 46.625 -26.875 43.5625 C-27.55972175 38.43165168 -27.21744217 35.24738434 -24.875 30.5625 C-21.905 30.5625 -18.935 30.5625 -15.875 30.5625 C-16.205 33.5325 -16.535 36.5025 -16.875 39.5625 C-15.555 39.5625 -14.235 39.5625 -12.875 39.5625 C-11.91128311 31.02672181 -14.68673053 27.14426151 -19.875 20.5625 C-21.63252445 17.0474511 -21.41253373 13.39853618 -20.875 9.5625 C-19.11285986 5.15714965 -16.89160963 2.2697067 -13 -0.4375 C-8.18392544 -1.97864386 -4.58554755 -2.29277377 0 0 Z " fill="#FEF7FA" transform="translate(81.875,53.4375)"/>
<path d="M0 0 C2.125 1.5625 2.125 1.5625 3.125 2.5625 C3.19726502 4.41537502 3.2088122 6.27083878 3.1875 8.125 C3.17847656 9.13691406 3.16945312 10.14882813 3.16015625 11.19140625 C3.14855469 11.97386719 3.13695312 12.75632812 3.125 13.5625 C-0.175 13.5625 -3.475 13.5625 -6.875 13.5625 C-6.875 11.5825 -6.875 9.6025 -6.875 7.5625 C-7.865 7.8925 -8.855 8.2225 -9.875 8.5625 C-9.74229212 14.79977058 -7.43718784 17.91981324 -3.46875 22.64453125 C-1.79579687 24.65781553 -0.88336382 25.77128253 -0.85546875 28.41015625 C-1.51104963 35.42363471 -3.2558346 42.84691899 -8.875 47.5625 C-13.50305335 49.10518445 -18.04688993 49.19131074 -22.875 48.5625 C-25.5625 46.5 -25.5625 46.5 -26.875 43.5625 C-27.40172917 38.73414932 -26.63073664 35.06157515 -24.875 30.5625 C-21.905 30.5625 -18.935 30.5625 -15.875 30.5625 C-16.205 33.5325 -16.535 36.5025 -16.875 39.5625 C-15.555 39.5625 -14.235 39.5625 -12.875 39.5625 C-11.91128311 31.02672181 -14.68673053 27.14426151 -19.875 20.5625 C-21.63252445 17.0474511 -21.41253373 13.39853618 -20.875 9.5625 C-19.11285986 5.15714965 -16.89160963 2.2697067 -13 -0.4375 C-8.18392544 -1.97864386 -4.58554755 -2.29277377 0 0 Z " fill="#FEF8FB" transform="translate(160.875,53.4375)"/>
<path d="M0 0 C6.27 0 12.54 0 19 0 C18.67 2.97 18.34 5.94 18 9 C14.7 9.33 11.4 9.66 8 10 C7.34 12.97 6.68 15.94 6 19 C8.64 19 11.28 19 14 19 C13.67 21.97 13.34 24.94 13 28 C9.7 28 6.4 28 3 28 C2.855625 29.44375 2.71125 30.8875 2.5625 32.375 C2.125 36.75 2.125 36.75 1 39 C4.3 39 7.6 39 11 39 C10.125 46.75 10.125 46.75 9 49 C2.4 49 -4.2 49 -11 49 C-9.87482053 39.99856421 -9.87482053 39.99856421 -9.07617188 36.54345703 C-8.89928833 35.76970734 -8.72240479 34.99595764 -8.54016113 34.19876099 C-8.35159546 33.39324799 -8.16302979 32.58773499 -7.96875 31.7578125 C-7.77277222 30.90822968 -7.57679443 30.05864685 -7.37487793 29.18331909 C-6.96327134 27.40301612 -6.54971098 25.62316382 -6.13427734 23.84375 C-5.4972292 21.11312332 -4.86731057 18.38092131 -4.23828125 15.6484375 C-3.83635509 13.91396568 -3.43402579 12.17958722 -3.03125 10.4453125 C-2.84268433 9.62765411 -2.65411865 8.80999573 -2.45983887 7.96755981 C-1.11563294 2.23126589 -1.11563294 2.23126589 0 0 Z " fill="#FEF9FB" transform="translate(171,53)"/>
<path d="M0 0 C6.27 0 12.54 0 19 0 C18.67 2.97 18.34 5.94 18 9 C14.7 9.33 11.4 9.66 8 10 C7.34 12.97 6.68 15.94 6 19 C8.64 19 11.28 19 14 19 C13.67 21.97 13.34 24.94 13 28 C9.7 28 6.4 28 3 28 C2.855625 29.44375 2.71125 30.8875 2.5625 32.375 C2.125 36.75 2.125 36.75 1 39 C4.3 39 7.6 39 11 39 C10.125 46.75 10.125 46.75 9 49 C2.4 49 -4.2 49 -11 49 C-9.87482053 39.99856421 -9.87482053 39.99856421 -9.07617188 36.54345703 C-8.89928833 35.76970734 -8.72240479 34.99595764 -8.54016113 34.19876099 C-8.35159546 33.39324799 -8.16302979 32.58773499 -7.96875 31.7578125 C-7.77277222 30.90822968 -7.57679443 30.05864685 -7.37487793 29.18331909 C-6.96327134 27.40301612 -6.54971098 25.62316382 -6.13427734 23.84375 C-5.4972292 21.11312332 -4.86731057 18.38092131 -4.23828125 15.6484375 C-3.83635509 13.91396568 -3.43402579 12.17958722 -3.03125 10.4453125 C-2.84268433 9.62765411 -2.65411865 8.80999573 -2.45983887 7.96755981 C-1.11563294 2.23126589 -1.11563294 2.23126589 0 0 Z " fill="#FEF9FB" transform="translate(92,53)"/>
<path d="M0 0 C3.3 0 6.6 0 10 0 C7.85178 10.39306435 5.63773948 20.76997895 3.3125 31.125 C3.09827393 32.09066895 2.88404785 33.05633789 2.66333008 34.05126953 C2.46118896 34.94442871 2.25904785 35.83758789 2.05078125 36.7578125 C1.87200439 37.5533252 1.69322754 38.34883789 1.5090332 39.16845703 C1 41 1 41 0 42 C-3.33327842 42.1424478 -6.66453893 42.04222103 -10 42 C-8.49788105 34.21107144 -6.78229778 26.47917253 -5 18.75 C-4.60941406 17.03296875 -4.60941406 17.03296875 -4.2109375 15.28125 C-3.95570313 14.17265625 -3.70046875 13.0640625 -3.4375 11.921875 C-3.20933594 10.92768555 -2.98117188 9.93349609 -2.74609375 8.90917969 C-1.96987208 5.88252479 -1.02162101 2.95195855 0 0 Z " fill="#FEF7FA" transform="translate(220,60)"/>
<path d="M0 0 C3.3 0 6.6 0 10 0 C7.85178 10.39306435 5.63773948 20.76997895 3.3125 31.125 C3.09827393 32.09066895 2.88404785 33.05633789 2.66333008 34.05126953 C2.46118896 34.94442871 2.25904785 35.83758789 2.05078125 36.7578125 C1.87200439 37.5533252 1.69322754 38.34883789 1.5090332 39.16845703 C1 41 1 41 0 42 C-3.33327842 42.1424478 -6.66453893 42.04222103 -10 42 C-8.49788105 34.21107144 -6.78229778 26.47917253 -5 18.75 C-4.60941406 17.03296875 -4.60941406 17.03296875 -4.2109375 15.28125 C-3.95570313 14.17265625 -3.70046875 13.0640625 -3.4375 11.921875 C-3.20933594 10.92768555 -2.98117188 9.93349609 -2.74609375 8.90917969 C-1.96987208 5.88252479 -1.02162101 2.95195855 0 0 Z " fill="#FEF7FA" transform="translate(206,60)"/>
<path d="M0 0 C3.3 0 6.6 0 10 0 C7.85178 10.39306435 5.63773948 20.76997895 3.3125 31.125 C3.09827393 32.09066895 2.88404785 33.05633789 2.66333008 34.05126953 C2.46118896 34.94442871 2.25904785 35.83758789 2.05078125 36.7578125 C1.87200439 37.5533252 1.69322754 38.34883789 1.5090332 39.16845703 C1 41 1 41 0 42 C-1.68608966 42.07205511 -3.37500659 42.08386068 -5.0625 42.0625 C-5.98160156 42.05347656 -6.90070313 42.04445312 -7.84765625 42.03515625 C-8.55792969 42.02355469 -9.26820313 42.01195312 -10 42 C-8.01246963 31.56268969 -5.89346067 21.18372172 -3.3125 10.875 C-3.09827393 10.01680664 -2.88404785 9.15861328 -2.66333008 8.27441406 C-1.13587974 2.27175947 -1.13587974 2.27175947 0 0 Z " fill="#FEF8FB" transform="translate(192,60)"/>
<path d="M0 0 C1.37466431 0.07069702 1.37466431 0.07069702 2.77709961 0.14282227 C4.26113281 0.21533203 4.26113281 0.21533203 5.77514648 0.28930664 C7.33652344 0.37341797 7.33652344 0.37341797 8.92944336 0.45922852 C10.49662109 0.53753906 10.49662109 0.53753906 12.09545898 0.61743164 C14.68619087 0.74755973 17.27660137 0.88405703 19.86694336 1.02172852 C19.53694336 6.30172852 19.20694336 11.58172852 18.86694336 17.02172852 C15.56694336 17.02172852 12.26694336 17.02172852 8.86694336 17.02172852 C9.19694336 14.38172852 9.52694336 11.74172852 9.86694336 9.02172852 C7.88694336 9.02172852 5.90694336 9.02172852 3.86694336 9.02172852 C3.20694336 11.66172852 2.54694336 14.30172852 1.86694336 17.02172852 C-1.43305664 17.02172852 -4.73305664 17.02172852 -8.13305664 17.02172852 C-7.32432209 14.37468961 -6.51126973 11.72911641 -5.69555664 9.08422852 C-5.46545898 8.32948242 -5.23536133 7.57473633 -4.99829102 6.79711914 C-2.90430058 0.02958484 -2.90430058 0.02958484 0 0 Z " fill="#FEF9FC" transform="translate(328.133056640625,84.978271484375)"/>
<path d="M0 0 C2.31279611 1.15639806 4.17409828 2.17409828 6 4 C6.09873816 5.99799572 6.12971799 7.99957158 6.125 10 C6.12886719 11.6396875 6.12886719 11.6396875 6.1328125 13.3125 C6 16 6 16 5 17 C3.48071962 17.07179964 1.95832518 17.08392007 0.4375 17.0625 C-0.38878906 17.05347656 -1.21507812 17.04445313 -2.06640625 17.03515625 C-3.02353516 17.01775391 -3.02353516 17.01775391 -4 17 C-4 14.69 -4 12.38 -4 10 C-6.04836882 10.56362302 -6.04836882 10.56362302 -8 12 C-8.81584568 15.05908413 -8.81584568 15.05908413 -9 18 C-12.3 18 -15.6 18 -19 18 C-18.66748447 11.68220489 -17.49701086 7.58186012 -13 3 C-8.63372413 0.05750974 -5.22268063 -0.56974698 0 0 Z " fill="#FEF7FA" transform="translate(375,52)"/>
<path d="M0 0 C2.97 0 5.94 0 9 0 C9 2.31 9 4.62 9 7 C11.99324263 5.9024777 12.84610901 5.32317108 14.25 2.375 C14.62125 1.199375 14.62125 1.199375 15 0 C17.97 0 20.94 0 24 0 C23.01 5.28 22.02 10.56 21 16 C19.35 16 17.7 16 16 16 C15.67 15.01 15.34 14.02 15 13 C14.525625 13.495 14.05125 13.99 13.5625 14.5 C9.89439057 16.64718601 6.16424275 16.78223344 2 16 C0.23828125 14.82421875 0.23828125 14.82421875 -1 13 C-1.328125 10.37109375 -1.328125 10.37109375 -1.25 7.4375 C-1.23453125 6.46683594 -1.2190625 5.49617188 -1.203125 4.49609375 C-1 2 -1 2 0 0 Z " fill="#FEF9FB" transform="translate(352,86)"/>
<path d="M0 0 C5.61 0 11.22 0 17 0 C16.125 12.5 16.125 12.5 15 17 C12.03 17 9.06 17 6 17 C6 14.69 6 12.38 6 10 C5.34 12.31 4.68 14.62 4 17 C1.03 17 -1.94 17 -5 17 C-3.7915371 11.05064416 -2.25422333 5.63555833 0 0 Z " fill="#FEF9FB" transform="translate(336,53)"/>
<path d="M0 0 C3.3 0 6.6 0 10 0 C9.67 1.98 9.34 3.96 9 6 C12.3 6 15.6 6 19 6 C18.125 13.75 18.125 13.75 17 16 C10.4 16 3.8 16 -3 16 C-2.28257809 10.26062468 -1.46550351 5.47121309 0 0 Z " fill="#FEF6FA" transform="translate(380,86)"/>
<path d="M0 0 C6.27 0 12.54 0 19 0 C18.67 2.97 18.34 5.94 18 9 C14.7 9.33 11.4 9.66 8 10 C7.34 12.31 6.68 14.62 6 17 C2.7 17 -0.6 17 -4 17 C-3.52434234 14.54093963 -3.04463948 12.08279007 -2.5625 9.625 C-2.42779297 8.92632812 -2.29308594 8.22765625 -2.15429688 7.5078125 C-1.11328125 2.2265625 -1.11328125 2.2265625 0 0 Z " fill="#FEFCFD" transform="translate(388,53)"/>
<path d="M0 0 C0.66 0.33 1.32 0.66 2 1 C1.87625 2.299375 1.7525 3.59875 1.625 4.9375 C1.58732405 10.89971885 4.46762203 14.44268335 8 19 C10.23551759 22.35327639 10.17283528 22.90743657 9.625 26.6875 C9.45871094 27.89986328 9.45871094 27.89986328 9.2890625 29.13671875 C9.14597656 30.05904297 9.14597656 30.05904297 9 31 C7.68 31 6.36 31 5 31 C5.495 26.545 5.495 26.545 6 22 C3.03 22 0.06 22 -3 22 C-3.33 23.98 -3.66 25.96 -4 28 C-4.99 27.67 -5.98 27.34 -7 27 C-6.3154952 21.66509659 -5.29127296 16.48484688 -4.0625 11.25 C-3.89298828 10.49589844 -3.72347656 9.74179688 -3.54882812 8.96484375 C-2.73812274 5.49391498 -1.99625572 2.99438357 0 0 Z " fill="#E71E7D" transform="translate(139,62)"/>
<path d="M0 0 C0.66 0 1.32 0 2 0 C2 0.99 2 1.98 2 3 C2.99 3 3.98 3 5 3 C5.33 2.01 5.66 1.02 6 0 C6.99 0 7.98 0 9 0 C9 0.66 9 1.32 9 2 C8.34 2 7.68 2 7 2 C7.02320313 2.62648438 7.04640625 3.25296875 7.0703125 3.8984375 C7.09738281 5.12433594 7.09738281 5.12433594 7.125 6.375 C7.14820313 7.18710938 7.17140625 7.99921875 7.1953125 8.8359375 C7 11 7 11 5 13 C4.01 13 3.02 13 2 13 C2 12.34 2 11.68 2 11 C2.66 10.67 3.32 10.34 4 10 C4.65555119 7.47266765 4.65555119 7.47266765 5 5 C3.68 5 2.36 5 1 5 C0.67 6.98 0.34 8.96 0 11 C-1.32 11.33 -2.64 11.66 -4 12 C-3.01 9.69 -2.02 7.38 -1 5 C-1.99 5 -2.98 5 -4 5 C-4 4.34 -4 3.68 -4 3 C-2.68 3 -1.36 3 0 3 C0 2.01 0 1.02 0 0 Z " fill="#FA9F5C" transform="translate(391,72)"/>
<path d="M0 0 C3.3 0 6.6 0 10 0 C9.67 2.31 9.34 4.62 9 7 C5.7 7 2.4 7 -1 7 C-0.67 4.69 -0.34 2.38 0 0 Z " fill="#FDF4F9" transform="translate(222,50)"/>
<path d="M0 0 C3.3 0 6.6 0 10 0 C9.67 2.31 9.34 4.62 9 7 C5.7 7 2.4 7 -1 7 C-0.67 4.69 -0.34 2.38 0 0 Z " fill="#FDF4F9" transform="translate(208,50)"/>
<path d="M0 0 C3.3 0 6.6 0 10 0 C9.67 2.31 9.34 4.62 9 7 C5.7 7 2.4 7 -1 7 C-0.67 4.69 -0.34 2.38 0 0 Z " fill="#FDF4F9" transform="translate(194,50)"/>
<path d="M0 0 C0.95166463 3.07306553 0.99362812 5.31196036 0.4765625 8.4765625 C0.3425 9.311875 0.2084375 10.1471875 0.0703125 11.0078125 C-0.07664062 11.87148437 -0.22359375 12.73515625 -0.375 13.625 C-0.51421875 14.49640625 -0.6534375 15.3678125 -0.796875 16.265625 C-1.85397465 22.70794931 -1.85397465 22.70794931 -3 25 C-4.32 25 -5.64 25 -7 25 C-5.32234985 16.45923559 -2.65997819 8.27435964 0 0 Z " fill="#E93289" transform="translate(286,61)"/>
<path d="M0 0 C0.66 0 1.32 0 2 0 C2 1.32 2 2.64 2 4 C5.465 3.505 5.465 3.505 9 3 C8.34 4.65 7.68 6.3 7 8 C6.34 8 5.68 8 5 8 C5 7.34 5 6.68 5 6 C4.01 5.67 3.02 5.34 2 5 C2 6.65 2 8.3 2 10 C4.31 10 6.62 10 9 10 C8.67 10.99 8.34 11.98 8 13 C2.25 13.125 2.25 13.125 0 12 C0 10.02 0 8.04 0 6 C-0.99 5.67 -1.98 5.34 -3 5 C-2.34 4.67 -1.68 4.34 -1 4 C-0.34786708 1.97536745 -0.34786708 1.97536745 0 0 Z " fill="#FCAA5A" transform="translate(330,72)"/>
<path d="M0 0 C0.66 0.33 1.32 0.66 2 1 C1.18026905 5.64514204 0.43351115 8.09549182 -3.4375 10.9375 C-6.00814381 12.66421755 -6.79054542 13 -10 13 C-10 12.01 -10 11.02 -10 10 C-8.2984375 9.38125 -8.2984375 9.38125 -6.5625 8.75 C-2.92320505 7.44434733 -2.92320505 7.44434733 -2.125 4.9375 C-2.08375 4.298125 -2.0425 3.65875 -2 3 C-1 1 -1 1 0 0 Z " fill="#F8905F" transform="translate(442,72)"/>
<path d="M0 0 C1.32 0 2.64 0 4 0 C3.25 6.75 3.25 6.75 1 9 C0.01 9 -0.98 9 -2 9 C-1.125 2.25 -1.125 2.25 0 0 Z " fill="#E82481" transform="translate(313,62)"/>
<path d="M0 0 C0.66 0 1.32 0 2 0 C1.67777813 3.0074041 0.99223238 4.00776762 -1.1875 6.1875 C-4.23053519 8.14856712 -6.42681564 8.66761076 -10 9 C-10 8.34 -10 7.68 -10 7 C-8.906875 6.5875 -7.81375 6.175 -6.6875 5.75 C-3.44280475 4.38277962 -1.94975511 2.97594201 0 0 Z " fill="#FBA35C" transform="translate(353,75)"/>
<path d="M0 0 C0.33 0 0.66 0 1 0 C1 2.97 1 5.94 1 9 C2.11375 8.34 3.2275 7.68 4.375 7 C7.75 5 7.75 5 10 5 C9 8 9 8 6.125 9.6875 C3 11 3 11 0 11 C0 7.37 0 3.74 0 0 Z " fill="#FDB159" transform="translate(404,73)"/>
<path d="M0 0 C0.33 0.66 0.66 1.32 1 2 C1.66 2 2.32 2 3 2 C1.515 7.445 1.515 7.445 0 13 C-0.66 12.67 -1.32 12.34 -2 12 C-1.34 8.04 -0.68 4.08 0 0 Z " fill="#E92D86" transform="translate(265,88)"/>
<path d="M0 0 C0.33 0.99 0.66 1.98 1 3 C-2.60957611 6.2910841 -5.12637153 7.54663921 -10 8 C-10 7.34 -10 6.68 -10 6 C-8.906875 5.566875 -7.81375 5.13375 -6.6875 4.6875 C-3.90591207 3.50504359 -1.93638061 2.39199957 0 0 Z " fill="#FBA65B" transform="translate(368,76)"/>
<path d="M0 0 C1.32 0 2.64 0 4 0 C4 1.65 4 3.3 4 5 C2.02 5.99 2.02 5.99 0 7 C-1.04449911 3.86650268 -0.93423645 3.01031744 0 0 Z " fill="#E92270" transform="translate(392,77)"/>
<path d="M0 0 C1.32 0.33 2.64 0.66 4 1 C3.67 2.65 3.34 4.3 3 6 C1.35 5.67 -0.3 5.34 -2 5 C-1.34 3.35 -0.68 1.7 0 0 Z " fill="#F36D64" transform="translate(433,73)"/>
<path d="M0 0 C-0.33 0.99 -0.66 1.98 -1 3 C-2.98 3 -4.96 3 -7 3 C-7.33 2.34 -7.66 1.68 -8 1 C-5.29120665 -0.35439668 -2.99066732 -0.06501451 0 0 Z " fill="#F68261" transform="translate(339,82)"/>
</svg>
