<?xml version="1.0" standalone="no"?>
<!DOCTYPE svg PUBLIC "-//W3C//DTD SVG 20010904//EN"
 "http://www.w3.org/TR/2001/REC-SVG-20010904/DTD/svg10.dtd">
<svg version="1.0" xmlns="http://www.w3.org/2000/svg"
 width="475.000000pt" height="159.000000pt" viewBox="0 0 475.000000 159.000000"
 preserveAspectRatio="xMidYMid meet">

<g transform="translate(0.000000,159.000000) scale(0.100000,-0.100000)"
fill="#000000" stroke="none">
<path d="M0 795 l0 -795 2375 0 2375 0 0 795 0 795 -2375 0 -2375 0 0 -795z
m2035 263 c-4 -18 -9 -34 -10 -36 -2 -2 -25 -2 -52 0 l-49 3 8 33 c8 31 11 32
59 32 l51 0 -7 -32z m140 0 c-4 -18 -9 -34 -10 -36 -2 -2 -25 -2 -52 0 l-49 3
8 33 c8 31 11 32 59 32 l51 0 -7 -32z m140 0 c-4 -18 -9 -34 -10 -36 -2 -2
-25 -2 -52 0 l-49 3 8 33 c8 31 11 32 59 32 l51 0 -7 -32z m-1485 -14 c19 -20
23 -37 21 -91 -1 -33 -1 -33 -51 -33 -47 0 -50 2 -50 26 0 19 -5 25 -17 22
-32 -6 -25 -37 20 -98 56 -74 63 -104 43 -174 -31 -105 -102 -152 -189 -124
-53 16 -64 44 -51 125 l9 58 49 3 49 3 -7 -50 c-5 -42 -4 -51 8 -51 19 0 36
31 36 62 0 13 -21 50 -46 83 -44 57 -46 63 -42 116 7 97 68 154 157 145 25 -2
51 -12 61 -22z m790 0 c19 -20 23 -37 21 -91 -1 -33 -1 -33 -51 -33 -47 0 -50
2 -50 26 0 19 -5 25 -17 22 -32 -6 -25 -37 20 -98 56 -74 63 -104 43 -174 -31
-105 -102 -152 -189 -124 -53 16 -64 44 -51 125 l9 58 49 3 49 3 -7 -50 c-5
-42 -4 -51 8 -51 19 0 36 31 36 62 0 13 -21 50 -46 83 -44 57 -46 63 -42 116
7 97 68 154 157 145 25 -2 51 -12 61 -22z m1064 5 c22 -17 26 -28 26 -74 0
-78 -5 -85 -57 -85 l-45 0 4 38 c2 31 0 37 -17 37 -17 0 -24 -17 -52 -125 -36
-144 -40 -180 -18 -180 27 0 58 96 35 110 -9 5 -9 17 0 49 l11 41 59 0 c33 0
60 -3 60 -7 0 -5 -14 -70 -32 -145 -29 -128 -33 -138 -55 -138 -14 0 -23 6
-23 15 0 19 -9 19 -31 -1 -27 -24 -92 -23 -119 1 -20 18 -22 27 -17 90 7 96
54 288 81 328 42 63 138 87 190 46z m1100 0 c22 -17 26 -28 26 -74 0 -78 -5
-85 -57 -85 l-45 0 4 38 c2 31 0 37 -17 37 -14 0 -22 -11 -31 -40 -10 -38 -13
-40 -54 -43 -23 -2 -46 0 -51 5 -11 11 23 108 47 134 44 50 133 64 178 28z
m-2675 -26 c-5 -21 -9 -41 -9 -45 0 -5 -22 -8 -50 -8 -48 0 -49 -1 -59 -37
-17 -60 -15 -63 35 -63 38 0 45 -3 40 -17 -3 -10 -8 -30 -11 -45 -6 -24 -12
-27 -53 -30 -49 -3 -45 1 -66 -80 -6 -28 -6 -28 44 -28 55 0 56 -2 39 -62
l-10 -38 -103 0 -103 0 54 233 c29 127 55 238 58 245 3 8 33 12 104 12 l99 0
-9 -37z m152 -50 l1 -88 20 88 21 87 49 0 c26 0 48 -3 48 -6 0 -7 -99 -439
-106 -466 -4 -14 -16 -18 -56 -18 l-50 0 4 106 c4 117 3 117 -26 -11 l-21 -90
-51 -3 -51 -3 54 233 c29 128 55 239 58 246 3 7 23 12 55 12 l50 0 1 -87z
m638 50 c-5 -21 -9 -41 -9 -45 0 -5 -22 -8 -50 -8 -48 0 -49 -1 -59 -37 -17
-60 -15 -63 35 -63 38 0 45 -3 40 -17 -3 -10 -8 -30 -11 -45 -6 -24 -12 -27
-53 -30 -49 -3 -45 1 -66 -80 -6 -28 -6 -28 44 -28 55 0 56 -2 39 -62 l-10
-38 -103 0 -103 0 54 233 c29 127 55 238 58 245 3 8 33 12 104 12 l99 0 -9
-37z m1068 0 c-3 -21 -18 -131 -33 -245 l-28 -208 -49 0 -49 0 7 40 c7 39 6
40 -23 40 -25 0 -30 -5 -41 -40 -12 -40 -12 -40 -61 -40 -49 0 -49 0 -40 28 5
15 41 125 80 245 l71 217 86 0 86 0 -6 -37z m287 21 c9 -8 16 -30 16 -48 0
-48 -27 -130 -49 -150 -16 -14 -18 -22 -9 -35 10 -17 -1 -90 -33 -204 -10 -36
-11 -37 -60 -37 -43 0 -50 2 -45 18 6 20 46 191 46 197 0 3 -7 5 -15 5 -18 0
-18 2 -46 -122 l-21 -98 -53 0 -52 0 54 233 c29 127 55 238 58 245 7 19 189
17 209 -4z m272 -29 c-3 -25 -9 -65 -12 -90 l-6 -46 -47 3 c-44 3 -46 4 -43
33 l2 30 -14 -32 c-14 -30 -19 -33 -60 -33 l-45 0 31 90 30 90 85 0 85 0 -6
-45z m543 8 c-5 -21 -9 -41 -9 -45 0 -5 -22 -8 -50 -8 l-50 0 -11 -45 -11 -45
-49 0 c-33 0 -49 4 -49 13 0 13 27 134 35 155 3 8 33 12 104 12 l99 0 -9 -37z
m-2054 -55 c-3 -13 -25 -106 -48 -208 l-43 -185 -53 -3 c-52 -3 -53 -2 -48 20
4 13 26 107 49 210 l43 188 53 0 c49 0 52 -1 47 -22z m140 0 c-3 -13 -25 -106
-48 -208 l-43 -185 -53 -3 c-52 -3 -53 -2 -48 20 4 13 26 107 49 210 l43 188
53 0 c49 0 52 -1 47 -22z m140 0 c-3 -13 -25 -106 -48 -208 l-43 -185 -53 -3
c-52 -3 -53 -2 -48 20 4 13 26 107 49 210 l43 188 53 0 c49 0 52 -1 47 -22z
m1025 -116 c0 -15 6 -17 35 -14 38 5 41 1 25 -29 -13 -23 -35 -26 -26 -3 4 11
1 14 -12 12 -11 -2 -17 -12 -17 -28 0 -22 4 -25 33 -22 39 3 43 -15 5 -24 -34
-9 -57 6 -61 40 -2 19 -8 26 -18 22 -8 -3 -14 -1 -14 5 0 5 7 12 15 15 8 4 15
15 15 25 0 10 5 19 10 19 6 0 10 -8 10 -18z m314 -14 c-3 -4 -14 -3 -25 2 -11
6 -17 15 -14 20 4 6 14 5 25 -2 10 -7 16 -16 14 -20z m296 17 c0 -9 9 -15 25
-15 21 0 25 -5 25 -31 0 -38 -16 -69 -35 -69 -19 0 -19 16 0 24 8 3 15 17 15
31 0 34 -28 33 -41 -2 -13 -35 -29 -54 -40 -48 -4 3 1 21 12 40 l21 35 -21 0
c-12 0 -21 5 -21 10 0 6 9 10 20 10 11 0 20 7 20 15 0 8 5 15 10 15 6 0 10 -7
10 -15z m66 2 c4 -4 -2 -7 -14 -7 -12 0 -22 4 -22 9 0 10 26 9 36 -2z m378
-19 c-7 -11 -34 3 -34 18 0 12 4 12 19 2 11 -7 18 -15 15 -20z m55 11 c-19
-12 -29 -11 -29 2 0 5 5 7 10 4 6 -3 10 -1 10 5 0 6 5 8 11 4 8 -4 7 -9 -2
-15z m-959 -4 c7 -9 10 -18 7 -22 -8 -7 -37 15 -37 28 0 14 16 11 30 -6z m590
-31 l0 -46 36 21 c39 24 44 25 44 12 0 -12 -42 -39 -73 -46 -24 -6 -25 -5 -29
49 -2 40 1 56 10 56 8 0 12 -16 12 -46z m-526 -15 c-22 -25 -66 -49 -89 -49
-26 0 -16 17 14 23 16 3 39 19 52 35 14 17 28 26 33 21 6 -5 2 -17 -10 -30z
m71 20 c4 -6 5 -12 2 -15 -7 -7 -37 7 -37 17 0 13 27 11 35 -2z m74 -25 c-19
-23 -87 -55 -94 -45 -3 6 10 17 29 26 19 9 42 25 52 36 21 23 33 7 13 -17z
m666 25 c10 -14 1 -21 -19 -13 -9 3 -13 10 -10 15 7 12 21 11 29 -2z m55 -40
c-36 -30 -67 -42 -75 -28 -3 4 9 15 27 22 18 8 42 24 53 36 13 16 21 19 24 10
2 -7 -11 -25 -29 -40z m-560 31 c0 -6 -27 -10 -60 -10 -33 0 -60 4 -60 10 0 6
27 10 60 10 33 0 60 -4 60 -10z m450 0 c0 -6 -27 -10 -60 -10 -33 0 -60 4 -60
10 0 6 27 10 60 10 33 0 60 -4 60 -10z m-804 -83 c1 -1 -4 -37 -9 -79 l-10
-78 -50 0 -49 0 7 40 c7 39 6 40 -23 40 -25 0 -30 -5 -41 -40 -12 -39 -12 -40
-60 -40 l-48 0 24 83 25 82 117 -3 c64 -2 116 -5 117 -5z m126 -33 c-4 -31 -2
-35 14 -32 11 2 23 16 29 36 9 30 12 32 57 32 26 0 48 -3 48 -7 0 -5 -7 -41
-17 -80 -15 -65 -19 -73 -40 -73 -14 0 -23 6 -23 15 0 19 -9 19 -31 -1 -26
-23 -92 -23 -118 0 -17 15 -21 31 -21 76 0 31 3 60 7 63 3 4 27 7 53 7 l46 0
-4 -36z m285 6 l-6 -30 49 0 c55 0 56 -2 39 -62 l-10 -38 -104 0 -103 0 13 53
c7 28 16 64 19 80 6 25 10 27 57 27 l52 0 -6 -30z"/>
<path d="M2827 852 c-14 -49 -29 -96 -33 -105 -4 -13 -1 -17 14 -17 22 0 22
-1 42 134 6 38 9 70 7 72 -2 2 -15 -36 -30 -84z"/>
<path d="M3127 953 c-17 -60 -17 -73 -3 -73 31 0 53 82 24 88 -9 2 -18 -5 -21
-15z"/>
</g>
</svg>
